HIERARCHY
ROOT Hips
{
 OFFSET 0.000000 0.000000 0.000000
 CHANNELS 6 Xposition Yposition Zposition Yrotation Xrotation Zrotation
 JOINT Chest
 {
  OFFSET 0.000000 10.354800 0.006500
  CHANNELS 3 Yrotation Xrotation Zrotation
  JOINT Chest2
  {
   OFFSET 0.000000 10.435800 -0.013200
   CHANNELS 3 Yrotation Xrotation Zrotation
   JOINT Chest3
   {
    OFFSET 0.000000 10.393700 0.000000
    CHANNELS 3 Yrotation Xrotation Zrotation
    JOINT Chest4
    {
     OFFSET 0.000000 10.383100 0.000000
     CHANNELS 3 Yrotation Xrotation Zrotation
     JOINT Neck
     {
      OFFSET 0.000000 15.694000 0.000000
      CHANNELS 3 Yrotation Xrotation Zrotation
      JOINT Head
      {
       OFFSET 0.000000 9.711000 -0.028000
       CHANNELS 3 Yrotation Xrotation Zrotation
       End Site
       {
        OFFSET 0.000000 18.578700 -0.014800
       }
      }
     }
     JOINT RightCollar
     {
      OFFSET -3.157200 10.367500 0.000000
      CHANNELS 3 Yrotation Xrotation Zrotation
      JOINT RightShoulder
      {
       OFFSET -14.482500 0.000000 0.000000
       CHANNELS 3 Yrotation Xrotation Zrotation
       JOINT RightElbow
       {
        OFFSET 0.000000 -31.707800 0.000000
        CHANNELS 3 Yrotation Xrotation Zrotation
        JOINT RightWrist
        {
         OFFSET 0.000000 -25.659300 0.000000
         CHANNELS 3 Yrotation Xrotation Zrotation
         End Site
         {
          OFFSET 0.000000 -18.994300 0.000000
         }
        }
       }
      }
     }
     JOINT LeftCollar
     {
      OFFSET 3.157200 10.367500 0.000000
      CHANNELS 3 Yrotation Xrotation Zrotation
      JOINT LeftShoulder
      {
       OFFSET 14.482500 0.000000 0.000000
       CHANNELS 3 Yrotation Xrotation Zrotation
       JOINT LeftElbow
       {
        OFFSET 0.000000 -31.707800 0.000000
        CHANNELS 3 Yrotation Xrotation Zrotation
        JOINT LeftWrist
        {
         OFFSET 0.000000 -25.659300 0.000000
         CHANNELS 3 Yrotation Xrotation Zrotation
         End Site
         {
          OFFSET 0.000000 -18.994300 0.000000
         }
        }
       }
      }
     }
    }
   }
  }
 }
 JOINT RightHip
 {
  OFFSET -8.365600 -0.032100 -0.003200
  CHANNELS 3 Yrotation Xrotation Zrotation
  JOINT RightKnee
  {
   OFFSET 0.000000 -43.980000 0.003100
   CHANNELS 3 Yrotation Xrotation Zrotation
   JOINT RightAnkle
   {
    OFFSET 0.000000 -42.882800 0.005200
    CHANNELS 3 Yrotation Xrotation Zrotation
    JOINT RightToe
    {
     OFFSET 0.000000 -4.915500 10.826300
     CHANNELS 3 Yrotation Xrotation Zrotation
     End Site
     {
      OFFSET 0.000000 -1.517500 6.175900
     }
    }
   }
  }
 }
 JOINT LeftHip
 {
  OFFSET 8.365600 -0.032100 -0.003200
  CHANNELS 3 Yrotation Xrotation Zrotation
  JOINT LeftKnee
  {
   OFFSET 0.000000 -43.980000 0.003100
   CHANNELS 3 Yrotation Xrotation Zrotation
   JOINT LeftAnkle
   {
    OFFSET 0.000000 -42.882800 0.005200
    CHANNELS 3 Yrotation Xrotation Zrotation
    JOINT LeftToe
    {
     OFFSET 0.000000 -4.915500 10.826300
     CHANNELS 3 Yrotation Xrotation Zrotation
     End Site
     {
      OFFSET 0.000000 -1.517500 6.175900
     }
    }
   }
  }
 }
}
MOTION
Frames: 16
Frame Time: 0.008333
0.000000 91.618600 0.000000 0.000000 -5.767877 0.000000 0.000000 11.653817 0.000000 0.000000 -5.885947 0.000000 0.000000 -0.000000 0.000000 0.000000 -0.000000 0.000000 0.000000 12.528835 0.000000 0.000000 0.711642 0.000000 0.000000 -0.000000 0.000000 0.000000 0.000000 -90.000000 0.000000 -2.309062 0.000000 0.000000 2.309062 0.000000 0.000000 -0.000000 0.000000 0.000000 -0.000000 90.000000 0.000000 -2.309062 0.000000 0.000000 2.309062 0.000000 0.000000 8.520406 0.000000 0.000000 1.905762 0.000000 -0.000000 -4.658285 0.000000 0.000000 -0.000000 0.000000 0.000000 8.520406 0.000000 0.000000 1.905762 0.000000 -0.000000 -4.658285 0.000000 0.000000 -0.000000 0.000000
101.624587 126.602980 131.273271 173.118194 -21.623766 -3.432346 -0.406479 13.244642 3.380152 -0.061752 1.100738 0.281396 -0.108319 1.854915 0.481993 -0.401459 11.952746 3.053141 -0.704333 19.655699 -4.035925 0.141410 -4.830646 -4.138711 2.523965 6.352475 -4.677818 -3.738392 -4.873510 -1.648947 -109.114843 -60.689337 129.806506 -21.246272 -5.262627 -26.626703 -0.620990 7.861426 -0.170447 8.980377 -0.041791 -3.997871 83.146977 -52.730059 -125.217471 26.390696 -17.294264 31.330773 6.929635 -55.416810 -10.786978 -135.833425 70.975213 -128.633709 1.333289 -9.350979 -15.892171 -0.001561 -0.002292 -0.000709 -17.418084 -61.441942 1.334290 67.164777 84.714658 62.005923 -4.992896 -22.638183 -0.058634 0.001318 -0.000379 0.000598
101.624486 126.602940 131.272689 173.115804 -21.624301 -3.430064 -0.406296 13.242184 3.379443 -0.069838 1.094533 0.285784 -0.106841 1.858676 0.480453 -0.405577 11.948335 3.056031 -0.617866 19.638206 -4.044400 0.264803 -4.863405 -4.180237 2.518696 6.403221 -4.650719 -3.813026 -4.991062 -1.806099 -109.193668 -60.618457 129.957037 -21.222872 -5.186267 -26.549005 -0.619615 7.876841 -0.177288 9.001639 -0.000149 -3.997747 83.516871 -52.793047 -125.598829 26.336840 -17.016582 30.935416 6.944700 -55.418486 -10.791620 -135.835028 70.970849 -128.635256 1.324185 -9.349659 -15.888138 -0.001808 -0.002997 -0.000821 -17.410261 -61.443373 1.327961 67.145917 84.715821 61.985454 -5.011522 -22.625886 -0.047404 -0.001151 0.000819 -0.000522
101.624955 126.602716 131.272344 173.111241 -21.621680 -3.429356 -0.410454 13.236428 3.382888 -0.075002 1.094741 0.286359 -0.101710 1.858466 0.478116 -0.419250 11.942031 3.058404 -0.502266 19.621422 -4.046259 0.388738 -4.881349 -4.208651 2.528446 6.444640 -4.629735 -3.884655 -5.074133 -1.916626 -109.380958 -60.584919 130.215694 -21.194841 -5.110416 -26.471021 -0.609090 7.892080 -0.183749 9.043534 0.045499 -3.989314 83.872174 -52.830392 -126.009615 26.304003 -16.766731 30.576358 6.958759 -55.423095 -10.792116 -135.826637 70.965525 -128.626494 1.321392 -9.348442 -15.883492 -0.001274 -0.003070 -0.000578 -17.405179 -61.449824 1.322613 67.186523 84.708801 62.027433 -5.008190 -22.615187 -0.042704 -0.001006 0.000829 -0.000457
101.625169 126.601669 131.273787 173.113734 -21.604957 -3.429928 -0.423301 13.219621 3.383434 -0.076338 1.094660 0.286370 -0.094171 1.858284 0.475724 -0.437778 11.936394 3.060756 -0.371286 19.600505 -4.038126 0.534187 -4.903162 -4.235074 2.540555 6.481311 -4.606878 -3.913934 -5.124419 -1.975574 -109.734918 -60.604757 130.602343 -21.161488 -5.031914 -26.391139 -0.603104 7.912235 -0.184124 9.103568 0.082799 -3.979993 84.221930 -52.851824 -126.450758 26.286254 -16.525126 30.275682 6.969108 -55.441302 -10.797941 -135.819164 70.959655 -128.618016 1.320924 -9.348408 -15.880986 -0.000355 -0.002413 -0.000161 -17.418041 -61.473974 1.327141 67.264297 84.701824 62.107110 -5.004411 -22.601359 -0.043257 -0.000804 -0.000721 -0.000365
101.626149 126.601502 131.272791 173.112908 -21.600141 -3.430759 -0.453543 13.222389 3.386890 -0.062693 1.092591 0.281793 -0.095547 1.852128 0.475252 -0.428955 11.937062 3.056502 -0.242800 19.572436 -4.019283 0.689111 -4.932940 -4.259347 2.542372 6.512856 -4.580439 -3.995824 -5.196466 -2.070819 -110.013954 -60.602187 130.952596 -21.114443 -4.952978 -26.307197 -0.598775 7.926370 -0.177911 9.161310 0.115533 -3.966463 84.587872 -52.877885 -126.924061 26.267346 -16.275488 30.030988 6.973520 -55.447466 -10.797787 -135.817498 70.956414 -128.615365 1.322992 -9.350279 -15.882476 0.000026 -0.002980 0.000012 -17.426113 -61.481924 1.328524 67.291848 84.703194 62.133958 -4.962783 -22.590209 -0.054874 0.002546 0.001362 0.001156
101.627090 126.601412 131.271224 173.110542 -21.595275 -3.429488 -0.459905 13.221255 3.387060 -0.075034 1.098753 0.285461 -0.111736 1.854263 0.479557 -0.424879 11.924854 3.051224 -0.155966 19.559083 -4.021457 0.901426 -4.991410 -4.291732 2.567945 6.549668 -4.566563 -4.065025 -5.266875 -2.162423 -110.348469 -60.606127 131.339783 -21.046290 -4.866522 -26.216159 -0.567767 7.957670 -0.170636 9.213836 0.125022 -3.965282 84.993713 -52.927441 -127.432942 26.223132 -16.009776 29.836862 6.981297 -55.454309 -10.800092 -135.803074 70.951124 -128.603447 1.330149 -9.347356 -15.879946 -0.000791 -0.003296 -0.000359 -17.428094 -61.488430 1.329164 67.277562 84.710984 62.121263 -4.951704 -22.591214 -0.058849 0.003609 0.002538 0.001639
101.627557 126.600811 131.270535 173.102090 -21.581719 -3.423372 -0.462065 13.212310 3.384579 -0.074219 1.099775 0.285465 -0.118653 1.861732 0.482170 -0.454714 11.924548 3.057606 0.031627 19.508527 -4.016821 1.016295 -5.027600 -4.308321 2.612599 6.579315 -4.565565 -4.108107 -5.325911 -2.241344 -110.774152 -60.621370 131.784425 -20.957998 -4.763537 -26.114679 -0.523238 7.963687 -0.183145 9.236622 0.125212 -3.963528 85.465911 -53.021853 -127.960755 26.139010 -15.716616 29.681278 7.004760 -55.470551 -10.813959 -135.795226 70.948841 -128.595598 1.338432 -9.342835 -15.879051 -0.001584 -0.003326 -0.000719 -17.425440 -61.503919 1.332348 67.277205 84.713897 62.122042 -4.960519 -22.592325 -0.065687 0.002646 0.003773 0.001201
101.628704 126.600058 131.270061 173.093270 -21.564146 -3.420816 -0.474907 13.227113 3.389978 -0.059314 1.075085 0.278766 -0.121236 1.867143 0.483344 -0.451351 11.915146 3.055638 0.176584 19.465975 -3.997204 1.112717 -5.072390 -4.322571 2.629114 6.618758 -4.551792 -4.153335 -5.378102 -2.320085 -111.237943 -60.638971 132.260360 -20.856882 -4.647042 -25.995258 -0.512676 7.977953 -0.177392 9.255839 0.123600 -3.963236 86.006381 -53.154442 -128.530721 26.009665 -15.380030 29.540463 7.015903 -55.493834 -10.814116 -135.784750 70.945807 -128.585048 1.341280 -9.339141 -15.883310 0.000124 -0.005680 0.000056 -17.430031 -61.521091 1.342540 67.245629 84.721361 62.094445 -4.965782 -22.611345 -0.065444 0.000199 0.003115 0.000090
101.629755 126.599681 131.268188 173.083672 -21.551592 -3.416741 -0.471832 13.234372 3.393285 -0.064281 1.072359 0.278075 -0.113131 1.854403 0.480162 -0.460215 11.930673 3.060524 0.277282 19.411595 -3.992104 1.212511 -5.135967 -4.338244 2.657485 6.644179 -4.551342 -4.208371 -5.424233 -2.397685 -111.724824 -60.658230 132.761640 -20.752435 -4.515540 -25.846098 -0.493463 7.975362 -0.176857 9.295595 0.132978 -3.953999 86.608472 -53.317302 -129.155526 25.836182 -14.988318 29.384450 7.027393 -55.507261 -10.815302 -135.776178 70.945315 -128.577374 1.336161 -9.341190 -15.879501 -0.000554 -0.004055 -0.000252 -17.431338 -61.534258 1.349832 67.259522 84.720948 62.113883 -4.979039 -22.625077 -0.067852 -0.000760 0.002217 -0.000345
101.629963 126.599005 131.266352 173.080703 -21.534605 -3.410993 -0.472827 13.228219 3.390660 -0.066162 1.081601 0.281730 -0.113065 1.854882 0.480433 -0.462211 11.952727 3.067686 0.318960 19.350637 -4.001254 1.302714 -5.231679 -4.350793 2.682515 6.648565 -4.564397 -4.263453 -5.467297 -2.453990 -112.251027 -60.697705 133.299654 -20.653330 -4.364048 -25.664589 -0.475915 7.950588 -0.181661 9.354711 0.169642 -3.941088 87.290814 -53.511294 -129.858618 25.623603 -14.532892 29.187264 7.041743 -55.524606 -10.825023 -135.786750 70.945739 -128.588766 1.329293 -9.346812 -15.875916 -0.000252 -0.002532 -0.000115 -17.426405 -61.554764 1.343513 67.285330 84.711147 62.149315 -4.993506 -22.628330 -0.071797 -0.001963 0.000437 -0.000891
101.631359 126.598039 131.265024 173.077639 -21.512484 -3.412714 -0.472328 13.218016 3.395169 -0.068555 1.093973 0.283906 -0.113093 1.855837 0.480998 -0.458910 11.934326 3.065129 0.351503 19.323960 -3.997460 1.333338 -5.336585 -4.347795 2.708235 6.685626 -4.566473 -4.356644 -5.504007 -2.534068 -112.744686 -60.711276 133.841989 -20.563428 -4.194252 -25.458669 -0.460174 7.962070 -0.173690 9.367342 0.175930 -3.945914 88.046176 -53.736654 -130.542637 25.380710 -14.008767 28.913456 7.043377 -55.548773 -10.827928 -135.797040 70.945788 -128.594099 1.331444 -9.348906 -15.881616 -0.000388 -0.002046 -0.000176 -17.442758 -61.579228 1.360733 67.395761 84.685023 62.274094 -5.016940 -22.623392 -0.087128 0.001364 -0.000368 0.000619
101.632390 126.597001 131.262989 173.079830 -21.490626 -3.414415 -0.469923 13.238964 3.403582 -0.068874 1.094828 0.284789 -0.111810 1.864083 0.483429 -0.464747 11.910058 3.065103 0.373989 19.202542 -3.983509 1.308184 -5.375310 -4.346041 2.741452 6.698795 -4.577459 -4.482994 -5.536469 -2.644260 -113.195411 -60.691541 134.375996 -20.484946 -4.006848 -25.237689 -0.448456 7.948454 -0.175192 9.405190 0.203285 -3.949296 88.858448 -53.965316 -131.280539 25.126288 -13.432364 28.530333 7.038171 -55.574358 -10.828754 -135.807346 70.948596 -128.604187 1.329978 -9.344520 -15.886550 -0.000047 -0.002978 -0.000021 -17.473542 -61.602459 1.385636 67.406885 84.674441 62.287697 -5.012466 -22.612161 -0.100555 0.002262 0.000498 0.001027
101.632914 126.595621 131.260826 173.085764 -21.465272 -3.414949 -0.466798 13.240539 3.408819 -0.076686 1.074098 0.281591 -0.104667 1.885982 0.487427 -0.472271 11.908896 3.068066 0.362882 19.150392 -3.986806 1.241333 -5.490492 -4.324267 2.779256 6.714786 -4.588437 -4.598751 -5.575857 -2.746969 -113.656409 -60.674165 134.921972 -20.420009 -3.800337 -25.011195 -0.445695 7.926137 -0.180178 9.473108 0.257289 -3.948499 89.727696 -54.194727 -132.087284 24.880392 -12.826663 28.056083 7.029401 -55.601312 -10.833900 -135.805861 70.956847 -128.603410 1.325900 -9.336712 -15.891161 0.000044 -0.003190 0.000020 -17.508492 -61.629457 1.413003 67.379457 84.668729 62.259412 -5.007936 -22.594629 -0.113161 0.003303 0.002013 0.001500
101.633222 126.594025 131.258137 173.091919 -21.438742 -3.414145 -0.458612 13.249294 3.415700 -0.082845 1.065252 0.279513 -0.103382 1.881723 0.488068 -0.473225 11.915692 3.070949 0.287398 19.058447 -3.985373 1.180863 -5.571614 -4.313587 2.813579 6.735619 -4.600646 -4.714170 -5.630016 -2.864997 -114.093000 -60.634487 135.460796 -20.368218 -3.578540 -24.788780 -0.429591 7.921327 -0.178566 9.523003 0.285314 -3.953529 90.632998 -54.412883 -132.927207 24.644218 -12.190422 27.545538 7.011868 -55.629941 -10.837094 -135.795667 70.963863 -128.596273 1.327733 -9.329052 -15.901341 0.000869 -0.004064 0.000395 -17.559661 -61.658604 1.452925 67.376898 84.658725 62.250118 -5.021747 -22.573180 -0.125233 0.003016 0.003315 0.001369
101.632792 126.592255 131.254587 173.116058 -21.411062 -3.415272 -0.472786 13.255058 3.415413 -0.077310 1.063156 0.281111 -0.114989 1.858887 0.483787 -0.469075 11.941585 3.078138 0.185965 18.968059 -3.988571 1.110729 -5.651911 -4.302297 2.848383 6.761606 -4.618923 -4.823140 -5.704909 -3.004983 -114.499813 -60.570851 135.987553 -20.330565 -3.348619 -24.578799 -0.410322 7.972282 -0.206139 9.583683 0.246430 -3.938498 91.546622 -54.603091 -133.801793 24.404004 -11.505770 27.050770 6.988707 -55.656429 -10.848186 -135.786062 70.966313 -128.592897 1.326259 -9.325643 -15.903483 0.000621 -0.003795 0.000282 -17.606992 -61.689649 1.470592 67.373932 84.643613 62.247897 -5.036918 -22.552364 -0.136912 0.003995 0.004968 0.001814
